/* XPM */
static char *_207064ee49f4809cce0a2ae6d2c9d07[] = {
/* columns rows colors chars-per-pixel */
"64 64 105 2 ",
"   c #B60419",
".  c #B80718",
"X  c #B90D1E",
"o  c #B70B24",
"O  c #BA0F20",
"+  c #BB1324",
"@  c #BB162E",
"#  c #BF1D2D",
"$  c #BB1730",
"%  c #BF202E",
"&  c #BF2130",
"*  c #C12125",
"=  c #C2242D",
"-  c #C4292C",
";  c #C7302A",
":  c #CA372A",
">  c #CC3B29",
",  c #C02433",
"<  c #C12837",
"1  c #C22C3B",
"2  c #C5323F",
"3  c #D54A1E",
"4  c #EF7F16",
"5  c #E9761C",
"6  c #D34927",
"7  c #D75226",
"8  c #D95525",
"9  c #E36C22",
"0  c #EA7921",
"q  c #C53543",
"w  c #C63846",
"e  c #C33348",
"r  c #C73C49",
"t  c #C83F4C",
"y  c #C8404E",
"u  c #C94451",
"i  c #CC4D59",
"p  c #CD525E",
"a  c #D96C5A",
"s  c #CE5661",
"d  c #CF5965",
"f  c #D05B67",
"g  c #D05E69",
"h  c #D2636E",
"j  c #D36671",
"k  c #D46974",
"l  c #D56E79",
"z  c #DA7976",
"x  c #D7737D",
"c  c #D8767E",
"v  c #F68C0E",
"b  c #EE811F",
"n  c #F68E13",
"m  c #F1891E",
"M  c #F69017",
"N  c #F7941E",
"B  c #F8971D",
"V  c #F99A1C",
"C  c #ED8120",
"Z  c #F79522",
"A  c #F99B21",
"S  c #F7A33E",
"D  c #F8A746",
"F  c #F9AF52",
"G  c #F9B769",
"H  c #D87780",
"J  c #D97C85",
"K  c #DA7F88",
"L  c #DB838C",
"P  c #DC8790",
"I  c #DD8B93",
"U  c #DF9199",
"Y  c #E0949C",
"T  c #E29AA1",
"R  c #E3A0A7",
"E  c #E5A5AB",
"W  c #E5A8AE",
"Q  c #E7ACB2",
"!  c #E8B1B6",
"~  c #E9B5BA",
"^  c #EBBABE",
"/  c #FACA91",
"(  c #EBBCC1",
")  c #EABFCD",
"_  c #EDC2C6",
"`  c #EEC6CA",
"'  c #EFC8CC",
"]  c #F0CBCE",
"[  c #F6D4C1",
"{  c #F1CED2",
"}  c #F1D2D5",
"|  c #F3D6D9",
" . c #F4DBDD",
".. c #FDEBD5",
"X. c #F5DEE0",
"o. c #F6E3E5",
"O. c #F7E6E8",
"+. c #F8E7E9",
"@. c #F9EBEC",
"#. c #FAEFF0",
"$. c #FBF3F4",
"%. c #FDF9F4",
"&. c #FCF7F8",
"*. c #FEFEFE",
"=. c None",
/* pixels */
"=.=.=.=.=.=.=.=.=.=.=.=.=.=.=.=.=.=.=.=.=.=.=.=.=.=.=.N N N N B Z N B Z N =.=.=.=.=.=.=.=.=.=.=.=.=.=.=.=.=.=.=.=.=.=.=.=.=.=.=.",
"=.=.=.=.=.=.=.=.=.=.=.=.=.=.=.=.=.=.=.=.=.=.=.=.N N N N N N N N N N N N N N N N =.=.=.=.=.=.=.=.=.=.=.=.=.=.=.=.=.=.=.=.=.=.=.=.",
"=.=.=.=.=.=.=.=.=.=.=.=.=.=.=.=.=.=.=.=.=.N N B N N N N N N N N N N N N B N N B B N N =.=.=.=.=.=.=.=.=.=.=.=.=.=.=.=.=.=.=.=.=.",
"=.=.=.=.=.=.=.=.=.=.=.=.=.=.=.=.=.=.N N N N N N N N Z N N N N N N N N N Z N N N N N N N N N =.=.=.=.=.=.=.=.=.=.=.=.=.=.=.=.=.=.",
"=.=.=.=.=.=.=.=.=.=.=.=.=.=.=.=.Z N N N N N N N N B N N N N N N N N N N N N N N N N N N N N N N =.=.=.=.=.=.=.=.=.=.=.=.=.=.=.=.",
"=.=.=.=.=.=.=.=.=.=.=.=.=.=.=.N B N N N N N N N N N N N N N N N N N N N N B N N N N N N N N N N N =.=.=.=.=.=.=.=.=.=.=.=.=.=.=.",
"=.=.=.=.=.=.=.=.=.=.=.=.=.N N N N N N N N N N N N N N N N N N N N N N N N N N N N N N N N N N N B N N =.=.=.=.=.=.=.=.=.=.=.=.=.",
"=.=.=.=.=.=.=.=.=.=.=.=.N N N N N N N N N N N N N N B V V V B B N N V V V B N N N N N N N N N N Z N B N =.=.=.=.=.=.=.=.=.=.=.=.",
"=.=.=.=.=.=.=.=.=.=.=.N N B Z N N N N N N M N B V N 0 9 8 6 > > > > 6 8 9 0 B V B N N N N N N N N N N N N =.=.=.=.=.=.=.=.=.=.=.",
"=.=.=.=.=.=.=.=.=.=.N N N N N N N N N N N B B 0 7 ; % @ @ $ @ @ # @ @ @ $ # ; 8 0 B B N N N N N B N N Z N B =.=.=.=.=.=.=.=.=.=.",
"=.=.=.=.=.=.=.=.=.N N N N N N N N N N B N 9 > # @ # # % % % % # # # # = # # # $ # > 9 B N N N N N N N N B N N =.=.=.=.=.=.=.=.=.",
"=.=.=.=.=.=.=.=.N N N N N N N N N N V 5 : @ @ % # # # % # % % % # # # # # # # # # @ @ > 0 B N N N N N N N N N N =.=.=.=.=.=.=.=.",
"=.=.=.=.=.=.=.N N N N N N N N N N N 8 # @ # # # % , + @ # # # % # % # # # # # # # % # @ & 3 n Z N N N N N N N B B =.=.=.=.=.=.=.",
"=.=.=.=.=.=.N N N N N N N N N V m : @ # = # , O J o.` i + , # % % % & # & # # # # & O c o.) a 4 B N N N N N N N N N =.=.=.=.=.=.",
"=.=.=.=.=.=.N N N N N N N N V b - @ # # @ = , O ! *.#.q + # # # & # # # # # # # % & X E *.$.e * m V N N N N N N N N =.=.=.=.=.=.",
"=.=.=.=.=.N N N N N N N N V b = @ = # # = @ # + ` *.+.1 # # # & # # % # # # # # # & + ( *.+.q + = 0 Z N N N N N B N N =.=.=.=.=.",
"=.=.=.=.N N N N N N N N B m - @ % # % # # # # #  .*.&.w + # # # % # # & # # # & # # # | *.%.u + $ = m B N N N N N N N N =.=.=.=.",
"=.=.=.=.N N N N N N N B B : @ # # # # # # = # 1 @.*.{ # # # # # # # % # & # # # # # 1 o.*.| # @ = @ : N N N N N N N N N =.=.=.=.",
"=.=.=.N N N N N N N N V 7 @ # # # # # # # % + w $.*.! + , # # & # # # # # # # # # @ w @.*.^ O % # # @ 7 B N N N N N N N N =.=.=.",
"=.=.=.N N N N N N M N 0 @ # # # % # # % # # # r $.*.T X # # # # # & # & # # # & = + r $.*.R X & # # # # 0 B N N N N N N N =.=.=.",
"=.=.=.N B N N N N N N : @ # # # # # # % # & # t &.*.E X & # # # # # # # # # = # # # y $.*.W O # # # # @ : N M N N N N N N =.=.=.",
"=.=.N N Z N N N N V 9 @ # # # # & # # % # & X L *.*.l O & = # # # # # & # # # # & O J *.*.J X & # # # # @ 9 V N N N N Z B N =.=.",
"=.=.N N N N N N N N > @ # # = & , , % # % @ & o.*.$.q # # # # # & # & # , % # # @ # { *.$.y # # # # = # @ > N N N N N B N N =.=.",
"=.=.N N N N N N V 0 # # # # + X X X + & # # j *.*.@.1 X & # # O & + O + O + , # # h *.*.$.w . # # # O # = @ 0 V N N N N N N =.=.",
"=.N B N N N N N B 7 @ # # @ L U L E ( X.{ @.$.*.*.*.] l { @.@.L O K U L E ^ X.{ @.$.*.*.*.{ l ' @.@.L + = @ 8 B N N N N N N N =.",
"=.N N N N N N N N ; @ # # + h *.*.*.*.*.&.+.*.*.*.*.*.*.*.} I h O g *.*.*.*.*.&.+.&.*.*.*.*.*.*.} I j # # @ ; N N N N N N N N =.",
"=.N N B N N N B b # # # # # + Q +.J K H 1 <  .*.*.*.Q s w @ X O # + W +.K J J 1 # } *.&.*.! s w @ X O # # # @ b N N N N N N N =.",
"B N N Z N N N V 9 @ # # # % % @ 1 O O O + y &.*.*.P . O + # , , # # # < O O O + q $.*.*.U X O @ # = % # # # @ 9 V N N N N N N N ",
"N N N B N N N B 8 @ # # # # # % # # & & + k *.&.*.L O & & % # # # = # # , & & + p *.&.*.I + , # # # # # # = @ 8 B N N N N N N N ",
"N N N N N N N V 6 @ # # # # # # # # # & O L *.%.*.^ O % # # # # # @ # # # # & O H *.$.*._ + # # # # # # # # @ 6 V N N N N N N N ",
"N N N N N N N B > @ # # # & % # # # # , @ ^ *.&.*.P X & & # # # # # # # # # # O ( *.$.*.Y X & # # # # & # # @ > B N N N N N N N ",
"B N N N N N N N > @ = # # # % % # # & + u %.*.&.*.L O % # # & # # # # = # # @ w &.*.&.*.I X & # & # # # # = @ > B N N N N Z B N ",
"N N N N N N N N > @ # & # # & # # # & X T *.&.&.*.J X = # # # # & # # # # = X U *.&.&.*.L O & @ # # & # # # @ > V N N N N N N N ",
"N N N N N N N B > @ # # # # # # # # # 1 @.*.*.*.*.s O # # & # # # # & # # @ < +.*.*.*.*.g O & = = # # # # = @ > B N N N N N N N ",
"N N N N N N M B 6 @ # = & # # # # # X I *.O.*.*.X.< @ # # & # = # # # # & X K *.| *.*.O.1 @ # # # # # & # # @ 6 V N N N B N N N ",
"N N N N N N N V 8 @ # # # # # # # # < @.! p *.*.! X & # # # # # # & # # # & @.^ y &.*.^ O = # # & # # # # # @ 8 V N N N N N N N ",
"N N N N N N N V 9 @ # # # # % # # X Y $.# #  .*.I X # # # # # # # # # , X U &., @ | *.U O = # # # # # # # # @ 9 B N N B N N N N ",
"=.N N B N N N N 0 = # # # # # & O r *.! + @ ^ *.L X & # # # # # # # % + q *.( + + ! *.U X , # # # # # # # # # 0 B N N N N N B =.",
"=.N N Z N N N N N ; @ # # % # # @ ` *.c + + T *.Q O # # # # # = < # # + _ *.J + + U *.! O & # # # # # < # # ; N N N N N N N N =.",
"=.N N N N N N N V 7 @ = # # % X k *.+.1 & X H *.` + # # , @ O ~ p + O h *.#.2 @ O l *.] # # # # # O ! d X @ 7 V N N N N N N B =.",
"=.=.N N B N N N B 0 # % # % # % { *.U O & O s *.| # # = @ X _ ^ + # # ] *.T + = + i *.X., # , @ X ~ _ # # # 0 B N N N N N N =.=.",
"=.=.N N N N N N N B : @ # % O Q *.^ # # & # 1 $.&.w X X < ] ] + # O E *._ , # # # < o.*.t . O , ` } # + @ > N M N N N N N N =.=.",
"=.=.N N N N N N N B 9 @ & O j *.@.< # % # & + k $.{ s J +.! # % O g &.$.1 @ , # # @ g #.| d c o.^ # # # @ 9 N N N N N N N Z =.=.",
"=.=.=.N N N N N N N B > o y @.*.k + % # # & & O p ] +.| k + # + w @.*.x + = @ & # & O i ` +. .l O # & $ > B N N N N N N N =.=.=.",
"=.=.=.N N N Z N N N B 5 , _ *.I + , # # # # # & + + < # O , @ & ( *.U + # & # # # # & @ + , # X % # # @ 0 V N N N N B N N =.=.=.",
"=.=.=.N N N N N N N n Z [ &.J X # # # # # % # # # # # # , O = ^ *.J X # # # # # # # # & # # # = # # @ 8 N N N N B N N N Z =.=.=.",
"=.=.=.=.B N N N n M / %.*.z . , # # # # # # # # # # # @ + I #.*.H X # # # # # # # = # # # # # # % @ : N N N N B N N N N =.=.=.=.",
"=.=.=.=.N N N M S ..*...F b - @ # # # # & # # & # # # w { *. .s + # # # # # # & # # # # # # # # @ - m B N N N N N N N N =.=.=.=.",
"=.=.=.=.=.N B M S G D N n B b = @ = # # # # # # # = @ r k u & + & # # & # # % # # # # # # # # # = b V B N N N N N N N =.=.=.=.=.",
"=.=.=.=.=.=.N Z M v n N N N V b - @ # # # # # # # # = + X + % & # # # = % # # # # # # # # = @ - b V N N N N N N N N =.=.=.=.=.=.",
"=.=.=.=.=.=.N N N Z N N N N N B m : @ # # # # # # # # # & & # # # # # # # # # # # # # # # @ : m N M N N N N N N N Z =.=.=.=.=.=.",
"=.=.=.=.=.=.=.N N B N N N N N N N N 7 # @ = # # # # & # % # # & # # @ & = # % # # # # @ # 7 N N N N N N B N N N B =.=.=.=.=.=.=.",
"=.=.=.=.=.=.=.=.B N N B N N N N N N B 5 > # @ & # # # # # # # # # # # # # # # % # @ @ > 0 V N N N N N N N N N N =.=.=.=.=.=.=.=.",
"=.=.=.=.=.=.=.=.=.N N N N N N N N N N B N 9 > $ @ # # = # # # # # # # = % # @ @ # > 9 B V N N N N N N N N N N =.=.=.=.=.=.=.=.=.",
"=.=.=.=.=.=.=.=.=.=.N N N N N N N N N N N B B 0 7 ; # @ @ @ @ @ # @ $ @ @ # ; 7 5 B V N N N N N N N N N N N =.=.=.=.=.=.=.=.=.=.",
"=.=.=.=.=.=.=.=.=.=.=.N N N N N N N N N N N N B V N 0 9 8 6 6 : > > 6 8 9 b N V B N N N N N N N N N N N N =.=.=.=.=.=.=.=.=.=.=.",
"=.=.=.=.=.=.=.=.=.=.=.=.N N N B N N N Z N N N N N N B V A B B B N V N V V N N N N N N N N N N N N N N N =.=.=.=.=.=.=.=.=.=.=.=.",
"=.=.=.=.=.=.=.=.=.=.=.=.=.Z N N N N B N N N N N N N N N N N N N N N N N N N N N N N N N N N Z B N N N =.=.=.=.=.=.=.=.=.=.=.=.=.",
"=.=.=.=.=.=.=.=.=.=.=.=.=.=.=.N N N N N N N N N N N N N N N N N N N N N N N N N N N N N N N N N N =.=.=.=.=.=.=.=.=.=.=.=.=.=.=.",
"=.=.=.=.=.=.=.=.=.=.=.=.=.=.=.=.N N N Z N N N N N N N N N N N N N N N N N N N N N N N N N N N N =.=.=.=.=.=.=.=.=.=.=.=.=.=.=.=.",
"=.=.=.=.=.=.=.=.=.=.=.=.=.=.=.=.=.=.B B N N N N N N N B N N B N N N N N N N N N Z N N N N N =.=.=.=.=.=.=.=.=.=.=.=.=.=.=.=.=.=.",
"=.=.=.=.=.=.=.=.=.=.=.=.=.=.=.=.=.=.=.=.=.N N B N N N N N N N N N B N N N N B N B N N =.=.=.=.=.=.=.=.=.=.=.=.=.=.=.=.=.=.=.=.=.",
"=.=.=.=.=.=.=.=.=.=.=.=.=.=.=.=.=.=.=.=.=.=.=.=.N B N N N N B N N N N B N N N N =.=.=.=.=.=.=.=.=.=.=.=.=.=.=.=.=.=.=.=.=.=.=.=.",
"=.=.=.=.=.=.=.=.=.=.=.=.=.=.=.=.=.=.=.=.=.=.=.=.=.=.=.N N N N N N N N Z B =.=.=.=.=.=.=.=.=.=.=.=.=.=.=.=.=.=.=.=.=.=.=.=.=.=.=."
};
