/* XPM */
static char *b79c618fab5e4af38b85962a466250cf[] = {
/* columns rows colors chars-per-pixel */
"16 16 23 1 ",
"  c #BF1E2E",
". c #CA342B",
"X c #CD3C2A",
"o c #C32D3C",
"O c #E26824",
"+ c #C83C4A",
"@ c #D14F47",
"# c #CC4B58",
"$ c #D05A66",
"% c #F48D1F",
"& c #F7941E",
"* c #D97882",
"= c #DD8790",
"- c #E1969D",
"; c #E5A5AB",
": c #EAAEAA",
"> c #EEC3C7",
", c #F2D2D5",
"< c #FDE2C3",
"1 c #F6E1E3",
"2 c #FBF0F1",
"3 c gray100",
"4 c None",
/* pixels */
"44444&&&&&&44444",
"444&&&&&&&&&&444",
"44&&&O.  .O&&&44",
"4&&%.$$   *@%&&4",
"4&&. ;=   1$.&&4",
"&&O  >=   3# O&&",
"&&.->3>*>,3;$X&&",
"&&  #3$  =3   &&",
"&&  ;3#  12   &&",
"&&X+13 #*1>o+.&&",
"&&O,=>>*2$1>#O&&",
"4&<:  +1*   .&&4",
"4&&%.      .%&&4",
"44&&&O.  XO&&&44",
"444&&&&&&&&&&444",
"44444&&&&&&44444"
};
