/* XPM */
static char *_3683c1f31ec4c27fbfcac0bcc58dff5[] = {
/* columns rows colors chars-per-pixel */
"32 32 90 1 ",
"  c #B60414",
". c #B80618",
"X c #B90C1D",
"o c #BB101F",
"O c #B90E23",
"+ c #BB1324",
"@ c #BE1827",
"# c #BB162D",
"$ c #BE1D2D",
"% c #BB1630",
"& c #BF202E",
"* c #BF2030",
"= c #C11D1A",
"- c #C0202E",
"; c #C42A2C",
": c #C93123",
"> c #CB392A",
", c #C02433",
"< c #C32C34",
"1 c #C22B3A",
"2 c #C3303E",
"3 c #E36B1D",
"4 c #CF4128",
"5 c #D54C27",
"6 c #D04229",
"7 c #DE6024",
"8 c #E56F22",
"9 c #E57124",
"0 c #EC7E21",
"q c #C22D42",
"w c #C53543",
"e c #C63947",
"r c #C43649",
"t c #C73D4B",
"y c #C8404E",
"u c #C94451",
"i c #CB4955",
"p c #CC4E59",
"a c #CD525E",
"s c #E07D5F",
"d c #D05D68",
"f c #D2636E",
"g c #D46A74",
"h c #D56E79",
"j c #D6727C",
"k c #F68D0E",
"l c #EF851E",
"z c #F28C1E",
"x c #F69016",
"c c #F6931E",
"v c #F8971D",
"b c #F99A1C",
"n c #F28C22",
"m c #F69320",
"M c #F79B2E",
"N c #F7A544",
"B c #D97D86",
"V c #DB838B",
"C c #DD8A92",
"Z c #DF929A",
"A c #E1969D",
"S c #E1989F",
"D c #DE93A1",
"F c #E29BA2",
"G c #E4A1A6",
"H c #E4A2A9",
"J c #E7AEB3",
"K c #E8B0B5",
"L c #EEBEB7",
"P c #EAB7BC",
"I c #EAB9BE",
"U c #F9C587",
"Y c #EBBDC1",
"T c #EDC1C5",
"R c #EEC5C9",
"E c #EFCACD",
"W c #F0CDD1",
"Q c #F2D3D6",
"! c #F3D6D9",
"~ c #F4DADC",
"^ c #FDE7C9",
"/ c #F5DEE1",
"( c #F7E7E8",
") c #F8E7E9",
"_ c #F9EBED",
"` c #FBF0EF",
"' c #FBF3F4",
"] c #FBF6FB",
"[ c #FEFEFE",
"{ c None",
/* pixels */
"{{{{{{{{{{{{{vmcvcv{{{{{{{{{{{{{",
"{{{{{{{{{{ccccvvmccmcc{{{{{{{{{{",
"{{{{{{{{cccccccmmvcccccc{{{{{{{{",
"{{{{{{{cccccvbbvvbvvccccc{{{{{{{",
"{{{{{{ccccvbl7546570vbmccc{{{{{{",
"{{{{{cccvv3>OO%%###%>3kvcvc{{{{{",
"{{{{cccvz4%#pi@*&&&&+qsnvccc{{{{",
"{{{cccvl;%&O/Jo*&&$*oV]<lvcvc{{{",
"{{cccvz;#$$$_So**$$*oF`%;zbzcv{{",
"{{cccb4%$$@*]jX*$$$*XJWO%4bccc{{",
"{cccv9%$&$+2[fO*$*&$XTYo&#9bccv{",
"{cccc>$@X$+C[1$*$O++t[V.1#>vzcv{",
"{ccv0$+BR~W`[WEByTQQ/[)TK2@0vcv{",
"vccb7%@uCdu((gt$,ChtG[Au,&#7vcvm",
"cvcv5%$@oX2[QX@$@o@.I[t.$&%5vccc",
"cmcv6%$&*+h[W$$$$,$1_[p@*$#6vcvm",
"mccv4%$$,@Q[IO*&$-oV['e@$$%4vccc",
"cccv5%$*OfY'VX*&*%1PQ!@$$*%5vcmv",
"cccb7#&$&T1!ho,+$XAgBRo*$@%7vmvc",
"{vcb0@*.AE RVXOa1w',gQOOwpOlvcc{",
"{vccc>+e_i AY.hZXTF.u(1eGr:vccc{",
"{mccb3O/BX*,FSB C!O*@jHZeO9bccc{",
"{{ccxmLZo,*@+,.jW1@$$O<@O6vccc{{",
"{{mxN^U=%-%*&&HI*+*$$*$%;ncccc{{",
"{{{cMMkl;#&&$,e+@&$$$$%;lbccc{{{",
"{{{{cccbz6##&&@-,&-$@%4zbmcc{{{{",
"{{{{{cccvv8>%###%%%$>8vvmcc{{{{{",
"{{{{{{ccccvv07544570vvcccc{{{{{{",
"{{{{{{{cccccvbbvbbbbccccc{{{{{{{",
"{{{{{{{{vcccvcmccczccccc{{{{{{{{",
"{{{{{{{{{{mvmcccccvccc{{{{{{{{{{",
"{{{{{{{{{{{{{vccvcv{{{{{{{{{{{{{"
};
